HIERARCHY
ROOT Hips
{
	OFFSET 0.000000 0.000000 0.000000 
	CHANNELS 6 Xposition Yposition Zposition Yrotation Zrotation Xrotation 
	JOINT Lumbar
	{
		OFFSET 0.000000 0.000000 0.000000 
		CHANNELS 3 Zrotation Xrotation Yrotation
		JOINT Neck
		{
			OFFSET 0.000000 0.445665 0.000000 
			CHANNELS 3 Zrotation Xrotation Yrotation
			End Site
			{
				OFFSET 0.000000 0.227535 0.000000 
			}
		}
		JOINT RightShoulder
		{
			OFFSET 0.019635 0.377685 0.194865 
			CHANNELS 3 Zrotation Xrotation Yrotation
			JOINT RightElbow
			{
				OFFSET 0.000000 -0.243375 0.000000 
				CHANNELS 2 Zrotation Yrotation
				JOINT RightWrist
				{
					OFFSET 0.000000 -0.264825 0.000000 
					CHANNELS 2 Zrotation Xrotation
					End Site
					{
						OFFSET 0.006600 -0.176220 0.000990 
					}
				}
			}
		}
		JOINT LeftShoulder
		{
			OFFSET 0.019635 0.377685 -0.194865 
			CHANNELS 3 Zrotation Xrotation Yrotation
			JOINT LeftElbow
			{
				OFFSET 0.000000 -0.243375 0.000000 
				CHANNELS 2 Zrotation Yrotation
				JOINT LeftWrist
				{
					OFFSET 0.000000 -0.264825 0.000000 
					CHANNELS 2 Zrotation Xrotation
					End Site
					{
						OFFSET 0.006600 -0.176220 -0.000990 
					}
				}
			}
		}
	}
	JOINT RightHip
	{
		OFFSET 0.052140 -0.069960 0.075570 
		CHANNELS 3 Zrotation Xrotation Yrotation
		JOINT RightKnee
		{
			OFFSET 0.000000 -0.402270 0.000000 
			CHANNELS 1 Zrotation
			JOINT RightAnkle
			{
				OFFSET 0.000000 -0.404085 0.000000 
				CHANNELS 3 Zrotation Xrotation Yrotation
				End Site
				{
					OFFSET 0.204105 -0.089430 0.008415 
				}
			}
		}
	}
	JOINT LeftHip
	{
		OFFSET 0.052140 -0.069960 -0.075570 
		CHANNELS 3 Zrotation Xrotation Yrotation
		JOINT LeftKnee
		{
			OFFSET 0.000000 -0.402270 0.000000 
			CHANNELS 1 Zrotation
			JOINT LeftAnkle
			{
				OFFSET 0.000000 -0.404085 0.000000 
				CHANNELS 3 Zrotation Xrotation Yrotation
				End Site
				{
					OFFSET 0.204105 -0.089430 -0.008415 
				}
			}
		}
	}
}
MOTION
Frames: 16
Frame Time: 0.02
0.13902 0.00749 0.3518 31.20505 -13.96816 -3.86821 34.43788 1.4823 -12.13187 -8.67564 -7.53612 -0.83078 21.86765 -24.43524 32.32545 112.0341 122.19585 22.56183 3.11261 146.6149 6.66815 -64.05412 11.49775 -78.13517 0.90802 6.74299 24.55263 5.92222 -11.26307 -17.91804 -6.73109 -4.07987 -2.80104 42.72407 16.16388 2.70773 -28.81905 -11.1522 3.41119 2.64678
0.13955 0.0076 0.35305 30.46427 -13.96028 -3.56435 34.42383 1.58643 -11.79104 -8.87329 -6.98737 -0.83078 20.34006 -24.33967 31.24214 112.22228 122.25789 22.82576 3.07394 147.69702 9.56971 -62.96378 10.68738 -79.19548 -0.14103 5.88763 24.53441 5.83095 -10.9604 -17.79076 -6.73209 -4.04273 -2.77742 42.85795 15.82972 1.86703 -28.8423 -11.09556 3.48784 2.68453
0.13999 0.00781 0.35369 29.83345 -13.97802 -3.23676 34.42982 1.72909 -11.4979 -9.04276 -6.3493 -0.83078 18.67565 -24.28308 30.08983 112.42476 122.4545 23.27189 3.03043 148.053 13.36569 -61.58745 10.48017 -79.78325 -0.31916 4.77127 24.53094 5.67172 -10.64427 -17.67347 -6.74414 -4.02092 -2.76211 42.944 15.28816 0.77349 -28.60841 -11.01902 3.58593 2.73244
0.14048 0.00797 0.35456 29.17108 -13.9818 -2.92695 34.42625 1.85313 -11.1977 -9.22745 -5.74914 -0.83078 17.07106 -24.2187 28.97399 112.6265 122.57673 23.63164 2.98744 148.67774 16.77185 -60.41291 10.0253 -80.70609 -0.86589 3.76479 24.51646 5.54318 -10.35711 -17.5556 -6.75006 -3.9912 -2.74266 43.04681 14.85491 -0.1341 -28.47735 -10.94918 3.66919 2.77293
0.14091 0.00816 0.35559 28.42189 -13.99877 -2.58485 34.42653 1.98279 -10.83011 -9.39864 -5.14888 -0.83078 15.47106 -24.11494 27.8333 112.80326 122.7363 23.99517 2.94986 149.5696 20.13765 -58.93156 9.45497 -81.18569 -1.55497 2.78085 24.52391 5.4126 -9.97474 -17.42089 -6.7606 -3.96477 -2.72439 43.17421 14.36186 -1.33774 -28.40656 -10.88753 3.7742 2.82535
0.14146 0.00831 0.35616 27.88457 -13.9933 -2.30621 34.42302 2.10957 -10.61638 -9.59257 -4.53285 -0.83078 13.8327 -24.10348 26.73116 113.03552 122.84677 24.39429 2.89924 149.71512 23.78092 -58.01695 9.27314 -82.44394 -1.72215 1.70084 24.48809 5.27196 -9.78452 -17.32403 -6.76431 -3.93588 -2.70603 43.23788 13.94296 -1.99387 -28.1502 -10.80538 3.83918 2.85549
0.1424 0.00833 0.35565 27.88825 -13.91657 -2.19908 34.40127 2.21846 -10.81617 -9.85527 -3.886 -0.83078 12.10295 -24.31221 25.7289 113.41943 122.92244 24.90052 2.83015 148.15048 28.06108 -58.80521 9.98426 -86.0558 -0.7614 0.32739 24.32486 5.11068 -10.16016 -17.32493 -6.74462 -3.8904 -2.68218 43.1345 13.79615 -0.98094 -27.42668 -10.66393 3.78471 2.81928
0.14347 0.00831 0.3547 28.1059 -13.81645 -2.15861 34.37504 2.32292 -11.1698 -10.14201 -3.23042 -0.83078 10.34414 -24.61603 24.77256 113.85823 122.92717 25.43001 2.74599 145.82776 32.56758 -60.15981 11.07696 -90.43982 0.71408 -1.11646 24.11777 4.94341 -10.72475 -17.36431 -6.71797 -3.84299 -2.65851 42.96868 13.72844 0.57548 -26.5284 -10.50411 3.68977 2.76065
0.14448 0.0083 0.35393 28.23748 -13.72849 -2.09424 34.35274 2.42984 -11.45372 -10.41942 -2.58526 -0.83078 8.61052 -24.89268 23.81049 114.27104 122.87632 25.91429 2.65785 143.74078 36.91153 -61.21547 12.00927 -94.40892 2.02444 -2.46594 23.93299 4.78573 -11.18102 -17.38888 -6.69576 -3.80056 -2.63695 42.83257 13.61382 1.82016 -25.72107 -10.3578 3.61576 2.71381
0.14551 0.00832 0.35325 28.32436 -13.63493 -2.00233 34.3241 2.53694 -11.73875 -10.69096 -1.90607 -0.83078 6.81818 -25.10492 22.78126 114.68969 123.18503 26.54503 2.6132 142.09096 41.54834 -62.44749 12.88551 -98.64655 3.08164 -4.08489 23.7388 4.59776 -11.72808 -17.40259 -6.6687 -3.74168 -2.60665 42.68886 13.53777 3.32573 -24.85534 -10.18897 3.53203 2.66073
0.14653 0.00827 0.35226 28.55531 -13.54725 -1.98352 34.30618 2.64126 -12.05687 -10.97843 -1.30123 -0.83078 5.14719 -25.47099 21.90476 115.10783 122.74561 26.88125 2.47697 139.35578 45.60554 -63.43656 13.98907 -102.49693 4.76801 -5.15974 23.55356 4.47096 -12.1355 -17.44782 -6.64977 -3.71595 -2.59423 42.54726 13.40342 4.42476 -24.07409 -10.06297 3.45835 2.615
0.14752 0.00805 0.35059 29.11818 -13.48055 -2.15426 34.32855 2.74595 -12.43326 -11.32475 -0.86803 -0.83078 3.78473 -26.25766 21.43067 115.52121 120.09675 26.3363 2.07071 133.86394 48.09634 -63.74268 15.37962 -105.23563 8.1378 -4.67957 23.40424 4.52724 -12.07243 -17.57141 -6.65639 -3.78605 -2.63317 42.42303 13.0851 4.23041 -23.56181 -10.0596 3.42495 2.59653
0.14849 0.00778 0.34861 29.8205 -13.42089 -2.39574 34.36001 2.84646 -12.83638 -11.68256 -0.51729 -0.83078 2.55294 -27.19133 21.11085 115.93018 116.72977 25.50553 1.57717 127.31046 49.97172 -63.76693 17.02375 -107.53214 12.10296 -3.65452 23.26558 4.64349 -11.86888 -17.72513 -6.67119 -3.88885 -2.68971 42.30438 12.70713 3.61618 -23.14341 -10.10005 3.40249 2.58593
0.14945 0.00754 0.34676 30.46752 -13.35816 -2.60224 34.38087 2.94418 -13.22434 -12.0216 -0.15253 -0.83078 1.28343 -28.04591 20.72567 116.33456 113.79295 24.84476 1.1367 121.1967 52.06936 -63.8333 18.71753 -109.93803 15.74688 -2.90097 23.12124 4.72399 -11.75603 -17.86457 -6.68118 -3.97397 -2.73673 42.18539 12.35989 3.22072 -22.68772 -10.12066 3.37315 2.57068
0.1505 0.00725 0.34497 31.08862 -13.29296 -2.82262 34.42871 3.06174 -13.63124 -12.41855 0.31229 -0.83078 -0.08087 -28.95873 20.32076 116.76892 110.40378 24.01304 0.63727 115.19117 54.43021 -64.2645 19.75014 -112.75989 19.63263 -2.04988 22.9776 4.83912 -11.53943 -18.00811 -6.6952 -4.07059 -2.78996 42.05339 11.99993 2.72745 -22.20224 -10.14047 3.35034 2.5591
0.15136 0.00705 0.34297 31.79323 -13.23629 -3.03049 34.42277 3.13683 -14.00197 -12.69743 0.54813 -0.83078 -1.21353 -29.78013 19.99454 117.13879 107.80182 23.47239 0.24243 108.77491 56.0782 -63.88373 22.18835 -114.59695 23.13747 -1.27083 22.83724 4.89767 -11.49928 -18.14943 -6.70327 -4.15146 -2.8347 41.95257 11.65133 2.32936 -21.80448 -10.17236 3.31724 2.54214
